#!OML:ASF X:\für Bonn\!DataBase\2005_08_11_Bastian_Final\c3d\Bastian.ASF
:FULLY-SPECIFIED
:DEGREES
183
root 18.9543 15.7788 -3.03988 1092.82 -55.9167 21.2874
lowerback 76.0225 -0.462528 9.08444
upperback 13.2251 4.59104 3.17546
thorax -5.42348 1.39229 -1.65365
lowerneck -5.07843 -6.69408 0.292202
upperneck -24.5574 -9.50256 2.8667
head -6.55884 -5.36803 1.30581
rclavicle -1.17681e-013 3.81667e-014
rhumerus 68.801 4.17833 -21.2222
rradius 21.9932
rwrist -12.5597
rhand -32.5452 -14.6233
rfingers 7.12502
rthumb -5.77515 -44.5246
lclavicle -1.17681e-013 3.81667e-014
lhumerus -10.2062 -30.5198 -268.409
lradius 47.6283
lwrist -330.937
lhand -13.0652 -17.3075
lfingers 7.12502
lthumb 13.0304 12.2655
rfemur -77.7955 -25.3672 24.4142
rtibia 72.4014
rfoot -20.9818 -3.86008
rtoes 5.56452
lfemur -71.1446 -8.79934 -32.8186
ltibia 51.8403
lfoot -0.183461 -19.4312
ltoes -11.3203
184
root 18.9365 15.7743 -3.04327 1092.87 -55.6299 21.3094
lowerback 76.0771 -0.501574 9.1171
upperback 13.2334 4.59683 3.20446
thorax -5.40663 1.39822 -1.63223
lowerneck -5.22604 -6.80371 -0.190946
upperneck -24.5914 -9.5845 3.26378
head -6.49812 -5.40042 1.5047
rclavicle 4.45278e-014 2.22639e-014
rhumerus 69.9258 4.14284 -21.6305
rradius 21.2699
rwrist -12.7139
rhand -32.1657 -15.5429
rfingers 7.12502
rthumb -5.4087 -45.4539
lclavicle 4.45278e-014 2.22639e-014
lhumerus -10.0789 -30.2567 -268.237
lradius 47.505
lwrist -331.088
lhand -13.2566 -17.3924
lfingers 7.12502
lthumb 12.8459 12.1923
rfemur -77.8434 -25.5728 24.4645
rtibia 72.5112
rfoot -21.1215 -3.95974
rtoes 5.45264
lfemur -71.1587 -8.89912 -32.897
ltibia 51.8994
lfoot -0.180647 -19.6561
ltoes -11.1705
185
root 18.9184 15.7698 -3.04691 1092.96 -55.3525 21.2953
lowerback 76.1199 -0.522774 9.14864
upperback 13.2489 4.61789 3.24229
thorax -5.38352 1.40952 -1.60687
lowerneck -5.40013 -6.92056 -0.651179
upperneck -24.6087 -9.68026 3.63835
head -6.42898 -5.44012 1.69098
rclavicle 7.63333e-014 -1.59028e-015
rhumerus 71.0298 4.09294 -22.077
rradius 20.4997
rwrist -12.8462
rhand -31.8807 -16.2689
rfingers 7.12502
rthumb -5.13351 -46.1867
lclavicle 7.63333e-014 -1.59028e-015
lhumerus -9.93782 -29.992 -268.064
lradius 47.3938
lwrist -331.201
lhand -13.445 -17.4985
lfingers 7.12502
lthumb 12.6642 12.0976
rfemur -77.9134 -25.7765 24.5461
rtibia 72.6283
rfoot -21.2694 -4.01362
rtoes 5.50094
lfemur -71.1888 -9.00915 -32.9254
ltibia 51.9608
lfoot -0.196219 -19.8346
ltoes -11.0658
186
root 18.9003 15.7634 -3.05124 1093.03 -55.1043 21.3068
lowerback 76.1827 -0.534069 9.16514
upperback 13.2733 4.63559 3.27103
thorax -5.34873 1.4204 -1.58403
lowerneck -5.64622 -7.0547 -1.1714
upperneck -24.5715 -9.78572 4.07262
head -6.32252 -5.48362 1.89942
rclavicle -6.67916e-014 -1.90833e-014
rhumerus 72.0794 4.00844 -22.6769
rradius 19.7343
rwrist -12.6951
rhand -31.6412 -16.969
rfingers 7.12502
rthumb -4.9023 -46.8923
lclavicle -6.67916e-014 -1.90833e-014
lhumerus -9.80341 -29.7132 -267.894
lradius 47.2917
lwrist -331.283
lhand -13.6418 -17.6169
lfingers 7.12502
lthumb 12.4745 11.9908
rfemur -77.984 -25.9579 24.62
rtibia 72.7417
rfoot -21.4016 -4.09649
rtoes 5.38754
lfemur -71.2206 -9.09662 -32.9692
ltibia 52.0287
lfoot -0.214118 -20.0033
ltoes -10.9913
187
root 18.8823 15.7584 -3.05533 1093.11 -54.8214 21.31
lowerback 76.2358 -0.563862 9.1886
upperback 13.3047 4.64183 3.31697
thorax -5.30765 1.4251 -1.53936
lowerneck -5.8506 -7.17609 -1.65556
upperneck -24.6279 -9.88183 4.46926
head -6.2568 -5.52434 2.09517
rclavicle -4.77083e-014 7.95139e-015
rhumerus 73.1403 3.93034 -23.2105
rradius 18.9274
rwrist -12.6004
rhand -31.4819 -17.5383
rfingers 7.12502
rthumb -4.74851 -47.465
lclavicle -4.77083e-014 7.95139e-015
lhumerus -9.69999 -29.4177 -267.734
lradius 47.2626
lwrist -331.344
lhand -13.8122 -17.6816
lfingers 7.12502
lthumb 12.3102 11.936
rfemur -78.0396 -26.1529 24.6801
rtibia 72.8598
rfoot -21.5746 -4.16981
rtoes 5.35548
lfemur -71.2481 -9.20892 -33.0078
ltibia 52.0966
lfoot -0.215845 -20.2036
ltoes -10.8025
188
root 18.866 15.7542 -3.06016 1093.18 -54.5772 21.3214
lowerback 76.2984 -0.571414 9.19511
upperback 13.3242 4.65711 3.34436
thorax -5.27954 1.43444 -1.51347
lowerneck -6.02437 -7.30111 -2.11637
upperneck -24.6736 -9.97707 4.88002
head -6.19185 -5.56652 2.2919
rclavicle -3.18055e-014 1.11319e-014
rhumerus 74.1101 3.8423 -23.9847
rradius 18.1351
rwrist -12.305
rhand -31.3343 -18.0527
rfingers 7.12502
rthumb -4.60598 -47.9827
lclavicle -3.18055e-014 1.11319e-014
lhumerus -9.62286 -29.0959 -267.564
lradius 47.1978
lwrist -331.444
lhand -13.8908 -17.7912
lfingers 7.12502
lthumb 12.2344 11.831
rfemur -78.1246 -26.3235 24.7566
rtibia 72.9727
rfoot -21.7062 -4.22484
rtoes 5.40235
lfemur -71.2946 -9.28348 -33.0629
ltibia 52.1692
lfoot -0.231968 -20.3901
ltoes -10.7483
189
root 18.8494 15.7477 -3.0652 1093.25 -54.3092 21.3327
lowerback 76.3678 -0.613368 9.24468
upperback 13.3502 4.66748 3.36631
thorax -5.23768 1.44469 -1.50713
lowerneck -6.27989 -7.44877 -2.59547
upperneck -24.6853 -10.1022 5.29018
head -6.09979 -5.62235 2.48596
rclavicle -7.31528e-014 -1.74931e-014
rhumerus 75.0181 3.72164 -24.7892
rradius 17.3723
rwrist -11.9749
rhand -31.16 -18.5177
rfingers 7.12502
rthumb -4.43761 -48.4512
lclavicle -7.31528e-014 -1.74931e-014
lhumerus -9.51493 -28.8718 -267.414
lradius 47.1409
lwrist -331.517
lhand -13.9691 -17.8374
lfingers 7.12502
lthumb 12.1589 11.7893
rfemur -78.2028 -26.5137 24.8249
rtibia 73.0911
rfoot -21.8441 -4.28514
rtoes 5.44617
lfemur -71.337 -9.38415 -33.1063
ltibia 52.2406
lfoot -0.224089 -20.5879
ltoes -10.5805
190
root 18.8331 15.7412 -3.0711 1093.34 -54.0541 21.3147
lowerback 76.4362 -0.617872 9.26005
upperback 13.3746 4.69355 3.40821
thorax -5.20355 1.45694 -1.47165
lowerneck -6.42131 -7.5872 -3.06206
upperneck -24.7871 -10.2083 5.73309
head -6.05326 -5.67257 2.69662
rclavicle 3.81667e-014 -2.70347e-014
rhumerus 75.9056 3.60972 -25.6129
rradius 16.6136
rwrist -11.5565
rhand -30.9989 -18.9062
rfingers 7.12502
rthumb -4.28204 -48.8429
lclavicle 3.81667e-014 -2.70347e-014
lhumerus -9.4568 -28.6173 -267.242
lradius 47.1245
lwrist -331.559
lhand -14.0053 -17.8242
lfingers 7.12502
lthumb 12.124 11.8045
rfemur -78.2836 -26.6848 24.9244
rtibia 73.2175
rfoot -21.9815 -4.38204
rtoes 5.32419
lfemur -71.3854 -9.46345 -33.1384
ltibia 52.3159
lfoot -0.232267 -20.7719
ltoes -10.5058
191
root 18.8171 15.7343 -3.07683 1093.43 -53.7754 21.3311
lowerback 76.4489 -0.660369 9.31338
upperback 13.4129 4.7022 3.43963
thorax -5.15384 1.46694 -1.45742
lowerneck -6.61204 -7.72924 -3.54598
upperneck -24.8471 -10.3155 6.17607
head -5.98302 -5.72089 2.90509
rclavicle 1.59028e-014 -7.31528e-014
rhumerus 76.7219 3.46023 -26.6532
rradius 15.8671
rwrist -11.032
rhand -30.8847 -19.1502
rfingers 7.12502
rthumb -4.17183 -49.0891
lclavicle 1.59028e-014 -7.31528e-014
lhumerus -9.37161 -28.374 -267.079
lradius 47.0565
lwrist -331.587
lhand -13.9266 -17.9254
lfingers 7.12502
lthumb 12.1999 11.6988
rfemur -78.4156 -26.8934 25.0274
rtibia 73.3447
rfoot -22.118 -4.43073
rtoes 5.36634
lfemur -71.4685 -9.61207 -33.1419
ltibia 52.3967
lfoot -0.231624 -20.9296
ltoes -10.3631
192
root 18.8018 15.7268 -3.08429 1093.53 -53.5026 21.3231
lowerback 76.4932 -0.687556 9.35078
upperback 13.4328 4.71991 3.47028
thorax -5.12401 1.47842 -1.44075
lowerneck -6.79598 -7.8692 -3.98766
upperneck -24.8911 -10.4222 6.59856
head -5.91101 -5.77047 3.09948
rclavicle -5.725e-014 4.77083e-014
rhumerus 77.4826 3.34056 -27.7005
rradius 15.1086
rwrist -10.491
rhand -30.8414 -19.7752
rfingers 7.12502
rthumb -4.12994 -49.715
lclavicle -5.725e-014 4.77083e-014
lhumerus -9.32141 -28.1388 -266.919
lradius 46.9742
lwrist -331.65
lhand -13.8739 -18.0062
lfingers 7.12502
lthumb 12.2507 11.615
rfemur -78.5369 -27.0664 25.1249
rtibia 73.4836
rfoot -22.2738 -4.50594
rtoes 5.32845
lfemur -71.5508 -9.74117 -33.132
ltibia 52.4819
lfoot -0.239376 -21.0721
ltoes -10.3866
193
root 18.7869 15.718 -3.09179 1093.67 -53.2329 21.3052
lowerback 76.4873 -0.703728 9.39233
upperback 13.479 4.74408 3.51108
thorax -5.06936 1.49354 -1.41843
lowerneck -7.00316 -8.01137 -4.39463
upperneck -24.9279 -10.5394 6.97856
head -5.83624 -5.82522 3.27327
rclavicle -1.27222e-014 -1.59028e-015
rhumerus 78.1664 3.17401 -29.1329
rradius 14.2854
rwrist -9.48337
rhand -30.9621 -20.3992
rfingers 7.12502
rthumb -4.24657 -50.3366
lclavicle -1.27222e-014 -1.59028e-015
lhumerus -9.26345 -27.9874 -266.789
lradius 46.9317
lwrist -331.594
lhand -13.8152 -18.0793
lfingers 7.12502
lthumb 12.3072 11.5385
rfemur -78.6759 -27.2275 25.2387
rtibia 73.6255
rfoot -22.4197 -4.58983
rtoes 5.36137
lfemur -71.6613 -9.87556 -33.1151
ltibia 52.576
lfoot -0.273304 -21.2315
ltoes -10.4572
194
root 18.7728 15.7091 -3.09958 1093.81 -52.9461 21.2719
lowerback 76.5162 -0.751518 9.45615
upperback 13.4827 4.75988 3.52714
thorax -5.05558 1.50624 -1.42844
lowerneck -7.16204 -8.15295 -4.77075
upperneck -24.9879 -10.6511 7.3804
head -5.77585 -5.88116 3.45186
rclavicle -6.04305e-014 -3.33958e-014
rhumerus 78.7834 3.03105 -30.5755
rradius 13.3914
rwrist -8.27381
rhand -31.2363 -20.7311
rfingers 7.12502
rthumb -4.51128 -50.663
lclavicle -6.04305e-014 -3.33958e-014
lhumerus -9.22572 -27.7973 -266.655
lradius 46.8251
lwrist -331.646
lhand -13.7638 -18.1557
lfingers 7.12502
lthumb 12.3569 11.4592
rfemur -78.8569 -27.4214 25.4043
rtibia 73.7755
rfoot -22.5469 -4.68229
rtoes 5.35717
lfemur -71.7837 -10.0364 -33.0613
ltibia 52.6709
lfoot -0.262421 -21.372
ltoes -10.3299
